<svg xmlns="http://www.w3.org/2000/svg" width="242" height="43" viewBox="0 0 242 43">
  <g fill="#303030" fill-rule="evenodd" transform="translate(-579 -24)">
    <g transform="translate(579 24)">
      <g transform="matrix(1 0 0 -1 0 42.107)">
        <g>
          <path fill-rule="nonzero" d="M14.8926449,6.54525288 C14.7394225,6.20290769 14.3106861,5.60700511 13.2389885,5.54326003 C11.2433741,5.42459175 10.1075235,6.6263571 10.1075235,10.0674527 C10.1075235,13.9117927 12.5653827,13.6531129 14.8697331,14.5583499 L14.8926449,14.5583499 L14.8926449,6.54525288 Z M28.5383171,4.09789745 L28.101848,4.58253074 C27.8721576,4.43540484 27.622133,4.09789745 27.0095298,4.09789745 C25.8407436,4.09789745 25.1774481,4.80563849 25.1774481,6.17217346 L25.1774481,19.6297825 C25.1774481,26.4587579 20.5939503,28.6346276 13.1622341,28.6346276 C7.20345776,28.6346276 1.50215235,26.1545459 1.50215235,21.7524365 C1.50215235,19.8301242 2.72478121,18.5165204 4.14874718,18.0600601 L10.7685278,18.8691103 C10.4623694,19.8807787 10.1559246,21.8537456 10.1559246,23.2712197 C10.1559246,24.6864172 10.9217502,26.1340564 12.7028533,26.1340564 C14.3822854,26.1340564 14.8926449,24.8787908 14.8926449,23.2584138 L14.8926449,17.0483917 L7.71381724,14.6699037 C3.07934072,13.1533971 0.0246301434,11.0794057 0.0246301434,7.03216278 C0.0246301434,2.68070792 3.48774287,0.129482176 7.4586375,0.129482176 C10.7685278,0.129482176 13.51708,2.17359311 14.9436235,4.14627541 C15.7578502,1.77034861 18.2025352,0.149687088 21.3085108,0.149687088 C24.3632214,0.149687088 27.1627522,1.87165775 28.5383171,4.09789745" transform="translate(29.267 .272)"/>
        </g>
        <g>
          <path fill-rule="nonzero" d="M26.9213195,40.1252459 L26.3470935,40.1252459 L13.5282495,37.0896714 L13.5282495,36.5498304 L15.7841988,33.8008242 L15.7638646,8.75754835 C15.7638646,4.15509727 15.5596635,2.31901155 12.709154,2.31901155 C10.2641827,2.31901155 9.50122102,4.30706097 9.50122102,7.7962499 C9.50122102,9.81987135 9.47830926,12.9872046 9.54962212,14.1383154 L9.0037494,14.1383154 L2.93241905,12.6548196 C1.30425201,11.6912445 0.132601819,9.87052591 0.132601819,7.84718905 C0.132601819,2.78799315 4.96898824,0.00654525288 12.5049529,0.00654525288 C21.2635465,0.00654525288 26.9135868,3.69863703 26.9135868,12.1477048 L26.9213195,40.1252459 Z" transform="translate(.007 .415)"/>
        </g>
        <g>
          <path fill-rule="nonzero" d="M30.6444808,20.4894873 C30.6444808,25.5993377 27.7939713,28.7865913 22.8559139,28.7865913 C18.5250182,28.7865913 14.707346,25.4470895 13.232115,23.0708781 L13.4334521,28.7865913 L12.7446672,28.7865913 L0.0429595525,25.7513014 L0.0429595525,25.0515285 L2.74311062,22.4624541 L2.74855217,0.282015026 L13.280516,0.282015026 L13.232115,20.6795842 C13.6224741,21.6383214 15.2303069,22.6221014 16.8455861,22.6221014 C19.3925148,22.6221014 20.1557628,21.9579005 20.1557628,20.0839662 L20.142875,0.282015026 L30.6545047,0.282015026 L30.6444808,20.4894873 Z" transform="translate(200.084 .12)"/>
        </g>
        <g>
          <path fill-rule="nonzero" d="M25.2029374,10.5293198 C23.3195907,8.15083186 20.9462186,6.97894702 18.0954227,6.97894702 C12.9505867,6.97894702 9.69425261,9.86739558 9.49005154,16.647993 L25.7820322,16.647993 L25.7820322,16.9524895 C25.7820322,22.9217601 21.9133813,28.6830056 14.2751729,28.6830056 C6.74149937,28.6830056 0.172697401,22.2572747 0.172697401,13.8588615 C0.172697401,5.10501267 6.33309722,0.19834962 13.6141686,0.19834962 C19.9787695,0.19834962 24.7638908,4.09362881 25.8330109,10.2148631 L25.2029374,10.5293198 Z M13.4099675,26.1801578 C15.8546524,26.1801578 16.8730802,23.7458929 16.8730802,19.0774201 L9.49005154,19.0774201 C9.49005154,23.5099792 10.7633727,26.1801578 13.4099675,26.1801578" transform="translate(173.072 .224)"/>
        </g>
        <g>
          <path fill-rule="nonzero" d="M7.44632243,24.188978 C7.44632243,25.6622291 9.12289056,26.2023547 11.4962626,26.2023547 C15.6713583,26.2023547 18.6776678,23.3116296 19.2876935,19.7208469 L20.1755242,19.736214 L20.1755242,26.3139086 C17.986019,27.7288215 15.0845309,28.641742 11.5701531,28.641742 C5.56297565,28.641742 0.267494813,24.9977436 0.267494813,19.2313758 C0.267494813,8.50484467 14.9313085,11.7939765 14.9313085,5.01337913 C14.9313085,3.56801655 12.6982709,2.58651319 10.4497679,2.58651319 C5.81786899,2.58651319 2.55122462,4.96243999 1.22692482,10.6807144 L0.216229747,10.6807144 L0.522388158,2.73620028 C2.81155951,1.16903908 6.78503172,0.157086069 10.3990757,0.157086069 C16.9678776,0.157086069 22.2630721,4.00142612 22.2630721,10.1255062 C22.2630721,20.7478825 7.44632243,18.0168046 7.44632243,24.188978" transform="translate(149.099 .265)"/>
        </g>
        <g>
          <path fill-rule="nonzero" d="M22.0525703,28.7421974 C17.8262095,28.7421974 14.6185629,25.8588712 13.2939767,23.2268258 L13.2939767,40.3790879 L12.7249058,40.3790879 L0.107685278,37.3435134 L0.107685278,36.7703769 L2.80525878,34.0546661 L2.80525878,3.6989216 C6.2683715,1.06659164 11.7167883,0.257541472 16.4506446,0.257541472 C24.7501438,0.257541472 32.1841511,6.07712501 32.1841511,16.2456022 C32.1841511,23.8836277 28.2132565,28.7421974 22.0525703,28.7421974 M16.3999524,2.68696859 C14.2101608,2.68696859 13.2939767,3.44507962 13.2939767,6.78458147 L13.2939767,20.7848774 C13.6539778,21.423751 14.6311644,22.5597792 16.0986627,22.5751463 C19.5107967,22.6107183 21.4938097,20.0392877 21.4938097,12.9061004 C21.4938097,6.28002785 19.8118,2.68696859 16.3999524,2.68696859" transform="translate(114.769 .164)"/>
        </g>
        <g>
          <path fill-rule="nonzero" d="M14.8926449,28.7421974 C6.59343211,28.7421974 0.126587481,22.4687148 0.126587481,14.0193625 C0.126587481,5.57029477 6.44049611,0.257541472 14.8926449,0.257541472 C23.1918576,0.257541472 29.6587022,6.53130864 29.6587022,14.9803764 C29.6587022,23.4297287 23.34508,28.7421974 14.8926449,28.7421974 M14.8390886,2.68696859 C12.0905364,2.68696859 11.2765961,7.30450221 11.2765961,14.50115 C11.2765961,21.5330282 12.1953578,26.3053713 14.8926449,26.3053713 C17.641197,26.3053713 18.5064024,21.4644454 18.5064024,14.4960277 C18.5064024,7.46443404 17.5392397,2.68696859 14.8390886,2.68696859" transform="translate(85.218 .164)"/>
        </g>
        <g>
          <path fill-rule="nonzero" d="M24.9165404,10.2447436 L24.3626486,10.6733154 C22.5302805,8.29454285 20.486265,7.00655092 17.7886915,7.00655092 C12.6464331,7.00655092 9.38752141,10.850891 9.38752141,18.4405385 C9.38752141,23.1975145 11.3218469,26.233089 14.0729766,26.233089 C16.3621479,26.233089 16.9234861,24.3082155 16.9234861,21.2729256 C16.9234861,20.4132208 16.8725074,19.452207 16.6173277,18.2376357 L22.1170096,18.2376357 C23.2883734,18.7447505 24.5081383,20.2106026 24.5081383,22.2871552 C24.5081383,26.4840852 20.0804404,28.7103249 14.8869169,28.7103249 C6.94255008,28.7103249 0.223103276,22.2339394 0.223103276,13.8861808 C0.223103276,5.13517775 6.02636602,0.228514698 13.1032363,0.228514698 C19.4168585,0.228514698 23.898399,4.12322474 24.9165404,10.2447436" transform="translate(58.189 .195)"/>
        </g>
        <g>
          <path fill-rule="nonzero" d="M2.29117613,5.40694803 C3.12058189,5.40694803 3.53671676,4.89983322 3.53671676,4.19977574 C3.53671676,3.39101014 3.13089218,2.92430515 2.30664157,2.92430515 L1.93146148,2.92430515 L1.93146148,5.40694803 L2.29117613,5.40694803 Z M1.93146148,2.59704251 L2.33699965,2.59704251 L3.41900758,1.02504352 C3.65413953,0.675299351 3.85032149,0.426579742 4.07743432,0.264371301 L5.56555322,0.264371301 L5.56555322,0.535572431 C5.15715108,0.543255989 4.96068272,0.698065448 4.60841439,1.17216942 L3.4270267,2.7694957 C4.01385419,2.91690617 4.70292541,3.36056049 4.70292541,4.20745929 C4.70292541,5.1178186 3.95256522,5.72396593 2.65117718,5.72396593 L0.155227183,5.72396593 L0.155227183,5.45248022 C0.701386293,5.39158091 0.78043187,5.34348753 0.78043187,4.91747694 L0.78043187,1.07057571 C0.78043187,0.644849696 0.701386293,0.59647174 0.155227183,0.535572431 L0.155227183,0.264371301 L2.55666617,0.264371301 L2.55666617,0.535572431 C2.00792948,0.59647174 1.93146148,0.644849696 1.93146148,1.07057571 L1.93146148,2.59704251 Z" transform="translate(233.433 28.342)"/>
        </g>
        <g>
          <path fill-rule="nonzero" d="M5.44154331,0 C2.54234632,0 0.184439679,2.34547714 0.184439679,5.22624213 C0.184439679,8.10700713 2.54234632,10.4524843 5.44154331,10.4524843 C8.34045391,10.4524843 10.6986469,8.10700713 10.6986469,5.22624213 C10.6986469,2.34547714 8.34045391,0 5.44154331,0 M5.44154331,9.49403159 C3.07303999,9.49403159 1.14644726,7.57940283 1.14644726,5.22624213 C1.14644726,2.87308144 3.07303999,0.958452682 5.44154331,0.958452682 C7.81004664,0.958452682 9.73663937,2.87308144 9.73663937,5.22624213 C9.73663937,7.57940283 7.81004664,9.49403159 5.44154331,9.49403159" transform="translate(230.554 26.11)"/>
        </g>
      </g>
    </g>
  </g>
</svg>
